<svg width="16" height="16" viewBox="0 0 16 16" fill="none" xmlns="http://www.w3.org/2000/svg">
<g id="instagram">
<path id="Combined Shape" d="M8.65039 1.71488C9.77963 1.71704 10.023 1.72633 10.6041 1.75301C11.2814 1.78202 11.7444 1.88836 12.1504 2.04073C12.5687 2.19774 12.9249 2.41082 13.2783 2.75384C13.6341 3.09725 13.8509 3.44259 14.0079 3.85367C14.1648 4.24503 14.2744 4.6971 14.3043 5.35452C14.3299 5.92035 14.3391 6.15546 14.3412 7.26898V8.54013C14.3391 9.65373 14.3299 9.88908 14.3043 10.4546C14.2744 11.112 14.1648 11.5614 14.0079 11.9554C13.8461 12.3615 13.6266 12.7068 13.2731 13.0502C12.9197 13.3936 12.5635 13.6063 12.1452 13.7633C11.742 13.9157 11.2762 14.0221 10.5989 14.0511C10.0163 14.0759 9.77378 14.0849 8.62645 14.0869H7.31679C6.16946 14.0849 5.92698 14.0759 5.34436 14.0511C4.66703 14.0221 4.20405 13.9157 3.79805 13.7633C3.37969 13.6063 3.0235 13.3932 2.67009 13.0502C2.31389 12.7072 2.09754 12.3615 1.93299 11.9531C1.77601 11.5617 1.66644 11.1097 1.63656 10.4522C1.61094 9.88642 1.60172 9.65131 1.59961 8.53779L1.59965 7.24613C1.60184 6.15017 1.6111 5.91419 1.63656 5.34988C1.66644 4.69246 1.77601 4.24309 1.93299 3.84903C2.09714 3.44297 2.31389 3.09763 2.67009 2.75423C3.0235 2.4085 3.37969 2.19812 3.80044 2.0388C4.20365 1.88643 4.66942 1.78008 5.34675 1.75108C5.97829 1.72415 6.20995 1.71589 7.62559 1.71484L8.65039 1.71488ZM8.48886 2.82915H7.45875C6.21965 2.83076 5.99389 2.83943 5.39855 2.86521C4.77819 2.8919 4.43992 2.99322 4.2156 3.07791C3.91917 3.19161 3.7076 3.32425 3.48329 3.54197C3.26176 3.75737 3.12231 3.96504 3.00756 4.25276C2.9203 4.47048 2.81591 4.79649 2.78842 5.40093C2.76075 6.00321 2.75221 6.21757 2.7511 7.55657V8.24398C2.75221 9.58269 2.76075 9.79523 2.78842 10.3997C2.81591 11.0014 2.9203 11.3301 3.00756 11.5478C3.1247 11.8352 3.26136 12.0405 3.48568 12.2582C3.7076 12.4736 3.92156 12.6086 4.21799 12.72C4.44231 12.8047 4.77819 12.906 5.40094 12.9327C6.02146 12.9595 6.24232 12.9678 7.62186 12.9689H8.3301C9.70936 12.9678 9.92833 12.9595 10.5511 12.9327C11.171 12.906 11.5097 12.8047 11.734 12.72C12.03 12.6063 12.2416 12.4736 12.4659 12.2559C12.6879 12.0409 12.8269 11.8332 12.9417 11.5455C13.0289 11.3278 13.1333 11.0018 13.1608 10.3973C13.1907 9.74687 13.1982 9.54887 13.1982 7.89797L13.1982 7.72043C13.1977 6.23195 13.1896 6.02721 13.1608 5.39861C13.1333 4.79649 13.0289 4.46816 12.9417 4.25044C12.8245 3.96272 12.6879 3.75737 12.4635 3.53965C12.242 3.32464 12.028 3.18928 11.7316 3.07791C11.5073 2.99322 11.1714 2.8919 10.5487 2.86521C9.95333 2.83943 9.72789 2.83076 8.48886 2.82915ZM7.97042 5.11012C9.77749 5.11012 11.2433 6.53401 11.2433 8.28856C11.2433 10.0435 9.77749 11.467 7.97042 11.467C6.16336 11.467 4.69756 10.0435 4.69756 8.28856C4.69756 6.53363 6.16376 5.11012 7.97042 5.11012ZM7.97042 6.22696C6.7981 6.22696 5.84758 7.15006 5.84758 8.28856C5.84758 9.42706 6.7981 10.3502 7.97042 10.3502C9.14275 10.3502 10.0933 9.42706 10.0933 8.28856C10.0933 7.15006 9.14275 6.22696 7.97042 6.22696ZM11.3723 4.24232C11.7944 4.24232 12.1365 4.57451 12.1365 4.98443C12.1365 5.39435 11.7944 5.72655 11.3723 5.72655C10.9502 5.72655 10.6081 5.39435 10.6081 4.98443C10.6081 4.57451 10.9502 4.24232 11.3723 4.24232Z" fill="white"/>
</g>
</svg>
