<svg width="20" height="10" viewBox="0 0 20 10" fill="none" xmlns="http://www.w3.org/2000/svg">
<g id="Group 1934">
<path id="Vector" d="M16.7184 5.96307L17.7812 9.40186L14.9996 7.27553L12.2196 9.40186L13.2801 5.96307L10.5 3.83909H13.9369L14.9996 0.401855L16.0624 3.83909H19.5L16.7184 5.96307Z" fill="#FFE100"/>
<path id="Vector_2" d="M8.64563 6.10933L9.35413 8.40186L7.49975 6.98431L5.64637 8.40186L6.35339 6.10933L4.5 4.69334H6.79125L7.49975 2.40186L8.20825 4.69334H10.5L8.64563 6.10933Z" fill="#FFD000" fill-opacity="0.8"/>
<path id="Vector_3" d="M3.26375 6.87351L3.73608 8.40186L2.49984 7.45682L1.26425 8.40186L1.73559 6.87351L0.5 5.92951H2.0275L2.49984 4.40186L2.97217 5.92951H4.5L3.26375 6.87351Z" fill="#FFD000" fill-opacity="0.5"/>
</g>
</svg>
