<svg width="16" height="16" viewBox="0 0 16 16" fill="none" xmlns="http://www.w3.org/2000/svg">
<g id="linkedin">
<path id="Vector" fill-rule="evenodd" clip-rule="evenodd" d="M2.52115 1.71436C2.00114 1.71436 1.57935 2.1115 1.57935 2.60083V13.2032C1.57935 13.6925 2.00114 14.0894 2.52115 14.0894H13.3802C13.9004 14.0894 14.322 13.6925 14.322 13.203V2.60083C14.322 2.1115 13.9004 1.71436 13.3802 1.71436H2.52115ZM5.51565 6.38811V12.2329H3.60352V6.38811H5.51565ZM5.64163 4.58051C5.64163 5.14139 5.22659 5.59024 4.55992 5.59024H4.54739C3.90561 5.59024 3.49074 5.14139 3.49074 4.58051C3.49074 4.00689 3.91814 3.57061 4.57262 3.57061C5.22659 3.57061 5.6291 4.00689 5.64163 4.58051ZM8.48592 12.2329H6.57397C6.57413 12.1985 6.59895 6.93481 6.57413 6.38828H8.48609V7.2157C8.74022 6.8175 9.19511 6.25111 10.2094 6.25111C11.4674 6.25111 12.4106 7.0865 12.4106 8.88171V12.2329H10.4986V9.10647C10.4986 8.32065 10.2218 7.78472 9.53004 7.78472C9.00172 7.78472 8.68709 8.14614 8.54891 8.49533C8.49845 8.61994 8.48592 8.79479 8.48592 8.9693V12.2329Z" fill="white"/>
</g>
</svg>
