<svg width="274" height="34" viewBox="0 0 274 34" fill="none" xmlns="http://www.w3.org/2000/svg">
<path d="M43.0415 24.156C41.5954 22.6651 38.8247 24.0871 38.6122 26.0563C38.188 29.987 42.8676 32.241 45.903 31.0018C47.9465 30.1662 45.9096 28.4043 46.7381 27.0507C47.3797 26.0017 49.1669 26.0276 49.9981 27.0388C50.4007 27.5309 50.4007 28.7241 49.997 29.211C46.514 33.4044 39.6929 32.5936 38.119 27.5844C37.7015 26.2556 38.1157 24.7264 39.2232 23.5084C41.1453 21.3923 41.0711 21.094 41.0882 20.1608V12.7609C41.0882 11.3609 40.5346 10.7861 39.9145 10.7861C39.2585 10.7861 38.9472 11.1089 38.4656 11.5768L38.1204 11.0723L43.2278 6.29743C45.0555 7.51816 46.2645 8.8828 46.2645 11.0367L50.6814 6.58441L53.5799 11.4684L49.9216 15.3462L47.4021 10.6778L46.2642 11.7204V19.4396C46.2642 20.9468 47.1261 21.8835 48.2653 21.8835C49.1282 21.8835 50.5437 20.7306 51.44 20.0163L51.6818 20.4445L44.9876 25.9752C44.4395 25.4501 43.5818 24.7156 43.0415 24.156Z" fill="black"/>
<path d="M18.8257 13.5594C17.9998 15.0652 16.7113 16.6432 14.9611 16.6432C12.2193 16.6432 10.4705 14.24 10.4705 11.4068C10.4705 8.46693 13.7405 6.63803 13.7405 4.37714C13.7405 1.86814 11.5929 0.648786 9.44584 0.648786C7.29964 0.648786 4.85428 1.40168 4.85428 4.16266C4.85428 7.0681 9.08157 8.75391 9.08157 11.9814C9.08157 14.3484 8.19046 15.1374 4.49138 17.6836V17.7564C4.78915 17.6836 5.12004 17.6122 5.44955 17.6122C7.33137 17.6122 9.97405 19.8 11.4935 20.9819C12.4503 21.7717 13.3428 22.3096 14.5979 22.3096C16.4819 22.3096 17.3388 20.8052 17.6035 18.9035H18.0986C17.7691 22.9925 15.2246 26.1849 11.395 26.1849C6.77116 26.1849 4.5245 20.8385 2.08053 20.8385C1.05779 20.8385 0.692957 22.274 0.594712 23.4231H0C0.0996246 20.7319 1.68451 18.724 3.7976 17.5044C4.62468 17.0377 5.31708 16.4632 5.31708 15.6747C5.31708 15.1013 4.82227 14.599 3.13804 12.807C1.94861 11.5152 0.692681 9.79352 0.692681 7.53484C0.692681 2.62131 4.92107 0.0042351 8.98305 0.0042351C13.1772 0.0042351 17.8999 2.47878 17.8999 7.17645C17.8999 11.5518 14.4326 12.9854 14.4326 14.8871C14.4326 15.4238 14.9611 15.7825 15.3902 15.7825C16.7775 15.7825 17.6369 14.5629 18.3955 13.2732L18.8257 13.5594Z" fill="black"/>
<path d="M30.0152 11.5485C30.0152 10.8679 29.7513 10.4372 29.0896 10.4014V9.97077C30.7746 9.46848 31.8978 7.9999 32.4591 6.52968C33.5489 8.17745 34.9031 9.50624 36.6533 9.97077V10.4014H36.1251C35.2009 10.4014 34.9691 11.0104 34.9691 12.3739V20.3704C34.9691 21.6262 35.4986 22.0935 36.1251 22.0935C36.4891 22.0935 36.9179 21.6976 37.1498 21.4117L37.4136 21.8773L33.0547 26.181C31.4347 25.2112 30.0485 24.2066 30.0154 21.8773L24.5973 26.1813C23.7062 24.7825 22.3857 23.3845 20.7007 22.6647V22.2349C21.9897 22.2349 22.4842 21.7681 22.4842 20.3702V12.23C22.4842 11.0823 21.9897 10.5811 21.4276 10.5811C20.965 10.5811 20.6687 10.8681 20.1725 11.2265L20.0083 10.8679L24.7626 6.52968C27.4053 8.35692 27.4393 10.4014 27.4393 11.621V20.873C27.4393 21.5198 27.6048 22.3424 28.2299 22.3424C28.5622 22.3424 28.7595 22.1977 29.0239 22.021L30.0146 21.2661V11.5485H30.0152Z" fill="black"/>
<path d="M66.2726 20.4071C65.4472 20.9461 64.3894 21.8781 63.2991 21.8781C61.0207 21.8781 59.2702 20.0118 58.776 17.8614L66.0739 12.8409L62.4411 6.52968L57.2562 8.93062C54.1849 10.3664 53.8207 11.6213 53.8207 17.5025C53.8207 22.523 56.0342 24.533 60.1279 26.1827C62.1108 24.1371 64.3892 22.5585 66.5047 20.803L66.2726 20.4071ZM58.5767 15.4941C58.5767 13.6299 58.6438 11.2613 58.6769 8.89616H58.742L61.8464 14.9921L58.6769 17.216C58.6104 16.8204 58.5767 16.4268 58.5767 15.4941Z" fill="black"/>
<path d="M69.3695 12.3384C69.3695 11.0832 68.841 10.6167 68.2126 10.6167C67.8508 10.6167 67.4217 11.0112 67.1893 11.2976L66.9269 10.8317L71.285 6.52995C72.9032 7.49761 74.2905 8.50082 74.3223 10.8317L78.8142 6.56552C80.4336 7.53317 81.8212 8.53639 81.8543 10.8684L87.269 6.52968C88.1615 7.9274 89.4837 9.32512 91.1671 10.0436V10.4742C89.8789 10.4742 89.3838 10.9406 89.3838 12.3384V20.7299C89.3838 21.6264 89.8789 22.1276 90.4402 22.1276C90.9047 22.1276 91.2005 21.8412 91.6953 21.482L91.862 21.8412L87.1048 26.1819C84.4622 24.3883 84.4302 22.3427 84.4302 21.123V11.8722C84.4302 11.226 84.2649 10.4019 83.6362 10.4019C83.3737 10.4019 83.076 10.5456 82.8442 10.7245L81.8543 11.4774V21.1605C81.8543 21.8412 82.1175 22.2718 82.7785 22.3074V22.7377C81.094 23.2406 79.9719 24.7094 79.41 26.1816C78.3205 24.533 76.9649 23.205 75.6127 22.7377V22.3074H76.0073C76.6691 22.3074 76.8987 21.5887 76.8987 20.3357V11.3699C76.8987 10.5459 76.4701 10.3664 76.2049 10.3664C75.9085 10.3664 75.5788 10.51 75.3138 10.6884L74.3225 11.4418V21.1608C74.3225 21.8415 74.5883 22.2721 75.247 22.3077V22.738C73.5639 23.2409 72.4404 24.7097 71.8799 26.1819C70.7888 24.5333 69.436 23.2053 67.6858 22.738V22.3077H68.2129C69.139 22.3077 69.3697 21.6981 69.3697 20.336L69.3695 12.3384Z" fill="black"/>
<path d="M104.83 6.52711L99.7761 10.1841V5.19914C99.7761 2.61707 100.207 0.645378 102.783 0.645378H103.509V0H103.31C98.9832 0 95.3172 1.21935 94.8561 4.76962H94.7901C94.4579 3.47831 93.731 2.18701 93.139 1.5419L92.7736 1.93613C93.6658 2.68903 94.8222 5.55808 94.8222 7.88872V19.0768C94.8222 20.5112 94.4918 21.301 93.2041 21.301V21.7317C95.615 22.5538 97.7281 24.2773 99.4797 26.1771C100.338 24.4935 103.31 23.5253 104.697 22.9863C106.382 22.3407 107.504 21.3736 107.504 18.4676V11.9766C107.504 9.46563 106.25 8.28405 104.83 6.52711ZM102.551 22.5926C101.693 21.5878 100.734 20.7635 99.7763 19.9753V10.937C100.207 10.5783 100.834 10.0774 101.495 10.0774C102.386 10.0774 102.551 11.1528 102.551 12.8736V22.5926Z" fill="black"/>
<path d="M119.361 11.5485C119.361 10.8679 119.097 10.4372 118.436 10.4014V9.97077C120.121 9.46848 121.244 7.9999 121.804 6.52968C122.894 8.17745 124.249 9.50624 126 9.97077V10.4014H125.471C124.547 10.4014 124.315 11.0104 124.315 12.3739V20.3704C124.315 21.6262 124.845 22.0935 125.471 22.0935C125.836 22.0935 126.264 21.6976 126.496 21.4117L126.76 21.8773L122.401 26.181C120.781 25.2112 119.395 24.2066 119.361 21.8773L113.944 26.181C113.053 24.7822 111.734 23.3842 110.049 22.6644V22.2346C111.337 22.2346 111.831 21.7679 111.831 20.3699V12.23C111.831 11.0823 111.336 10.5811 110.774 10.5811C110.312 10.5811 110.015 10.8681 109.519 11.2265L109.355 10.8679L114.111 6.52968C116.752 8.35692 116.786 10.4014 116.786 11.621V20.873C116.786 21.5198 116.951 22.3424 117.578 22.3424C117.909 22.3424 118.106 22.1977 118.371 22.0209L119.361 21.2661L119.361 11.5485Z" fill="black"/>
<path d="M142.246 11.6935L138.744 15.5661L136.334 10.9045L135.244 11.9441V19.6553C135.244 21.1608 136.069 22.0912 137.16 22.0912C137.983 22.0912 139.34 20.9461 140.198 20.2276L140.43 20.6582L134.022 26.1827C132.338 24.4963 130.456 22.7394 128.143 22.1977V21.7695C129.002 21.7695 130.29 21.447 130.29 20.3707V12.9835C130.29 11.5857 129.761 11.0112 129.167 11.0112C128.54 11.0112 128.242 11.3354 127.781 11.8016L127.45 11.2982L132.338 6.52968C134.088 7.74765 135.244 9.11091 135.244 11.2615L139.471 6.81611L142.246 11.6935Z" fill="black"/>
<path d="M158.355 10.904V10.4731C155.845 9.89937 153.436 8.53666 151.682 6.52968C148.347 10.1502 143.825 9.93493 143.825 12.5523V21.233C143.825 23.3848 144.153 24.4233 146.895 26.1813C148.381 24.7092 149.965 23.3481 151.616 22.0935C151.616 26.4672 154.161 27.0051 154.161 29.6935C154.161 32.3853 151.682 33.3532 149.569 33.3532C149.138 33.3532 147.554 33.2827 147.554 32.7076C147.554 32.0608 149.604 32.6698 149.604 30.1958C149.636 28.5481 148.018 27.9027 146.728 27.9027C145.44 27.9027 144.253 28.762 144.253 30.2692C144.253 33.64 148.38 34 150.626 34C154.095 34 158.322 31.7397 158.322 27.4368C158.322 26.1069 157.859 25.284 157.431 24.6386C156.965 23.9935 156.506 23.5278 156.506 22.9889V12.6959C156.506 11.406 157.101 10.904 158.355 10.904ZM151.552 21.445L150.296 22.4513C150.033 22.6636 149.767 22.6994 149.604 22.6994C148.977 22.6994 148.777 21.734 148.777 20.6566V10.2569C149.636 11.0118 150.56 11.6566 151.552 12.123V21.445Z" fill="black"/>
<path d="M173.186 20.4071C172.36 20.9461 171.302 21.8781 170.212 21.8781C167.935 21.8781 166.182 20.0118 165.688 17.8614L172.987 12.8409L169.353 6.52968L164.169 8.93062C161.098 10.3664 160.735 11.6213 160.735 17.5025C160.735 22.523 162.947 24.533 167.042 26.1827C169.023 24.1371 171.303 22.5585 173.416 20.803L173.186 20.4071ZM165.489 15.4941C165.489 13.6299 165.555 11.2613 165.589 8.89616H165.655L168.758 14.9921L165.589 17.216C165.523 16.8204 165.489 16.4268 165.489 15.4941Z" fill="black"/>
<path d="M188.671 11.6935L185.169 15.5661L182.756 10.9045L181.667 11.9441V19.6553C181.667 21.1608 182.493 22.0912 183.584 22.0912C184.409 22.0912 185.762 20.9461 186.622 20.2276L186.853 20.6582L180.448 26.1827C178.762 24.4963 176.878 22.7394 174.566 22.1977V21.7695C175.426 21.7695 176.714 21.447 176.714 20.3707V12.9835C176.714 11.5857 176.185 11.0112 175.589 11.0112C174.962 11.0112 174.665 11.3354 174.202 11.8016L173.874 11.2982L178.762 6.52968C180.513 7.74765 181.667 9.11091 181.667 11.2615L185.893 6.81611L188.671 11.6935Z" fill="black"/>
<path d="M226.246 8.85857C226.61 8.89414 227.071 8.89414 227.6 8.89414C228.36 8.89414 229.481 8.78607 230.21 8.64354V8.17626C229.945 8.2121 229.583 8.24931 229.218 8.24931C228.193 8.24931 228.029 7.38725 227.931 5.38026C227.764 1.79416 224.825 0 221.82 0C219.145 0 217.595 0.860963 215.742 2.94128C215.114 1.29186 214.322 0 212.54 0C210.987 0 210.229 1.61386 209.566 2.90572C208.147 0.78901 206.066 0 204.117 0C199.559 0 196.323 3.29995 196.323 7.85481C196.323 12.4441 201.047 12.4441 201.047 14.058C201.047 15.1332 199.262 16.2105 198.204 16.2105H198.04V16.8554C200.088 16.8554 203.819 14.0583 203.819 10.5441C203.819 6.24122 199.098 6.20456 199.098 3.44358C199.098 2.22422 200.518 1.07572 201.443 1.07572C203.884 1.07572 204.779 4.0884 204.779 9.54062C204.779 14.2369 204.481 16.2808 203.689 17.5724C203.061 17.356 202.499 17.3221 202.201 17.3221C198.965 17.3221 196.949 21.5533 196.52 24.3849L197.115 24.4946C197.316 23.2739 197.709 21.8761 199.03 21.8761C201.872 21.8761 203.853 26.1798 207.518 26.1798C209.204 26.1798 210.558 25.21 211.615 24.2081C212.637 23.2399 213.366 22.2687 213.796 22.2687C214.456 22.2687 215.281 23.2399 216.435 24.2081C217.558 25.2103 219.045 26.1798 221.026 26.1798C225.155 26.1798 229.912 21.1577 229.912 16.6753C229.912 11.9771 225.253 11.8346 225.253 10.0771C225.254 9.61119 225.619 9.3606 226.246 8.85857ZM211.747 21.8767C209.601 21.8767 206.528 18.0408 204.085 17.6444V17.5727C208.707 16.3889 210.922 13.6635 210.922 8.42768C210.922 6.66992 210.492 4.94964 209.898 3.33578C210.459 2.51066 211.482 1.93668 212.408 1.93668C213.496 1.93668 214.718 2.44036 215.479 3.33578C213.991 5.30803 212.438 7.38725 212.438 10.1135C212.438 11.5837 213.366 12.8386 214.291 13.9866C215.182 15.099 216.104 16.1386 216.104 17.2496C216.104 19.1866 213.496 21.8767 211.747 21.8767ZM227.334 21.4441C227.334 22.269 226.276 23.1672 225.519 23.1672C223.009 23.1672 220.862 18.0025 217.824 18.0025C217.363 18.0025 216.9 18.0025 216.503 18.0753V18.0025C218.486 16.9268 220.169 14.9542 220.169 12.3363C220.169 8.46517 216.271 6.85021 216.271 4.30344C216.271 2.69096 218.152 1.076 219.309 1.076C220.897 1.076 221.457 2.4751 221.59 4.017C221.622 6.24122 222.548 8.42768 225.62 8.75023V8.78607C223.537 9.7551 221.291 11.0467 221.291 13.8441C221.291 18.2911 227.334 18.5776 227.334 21.4441Z" fill="black"/>
<path d="M242.558 6.52968C240.378 8.96645 236.547 9.68489 233.342 9.57682V20.0479C233.342 20.4777 233.277 21.4122 232.122 21.5217V21.9493C234.664 22.7005 236.909 24.3169 238.792 26.1821C239.718 24.2443 240.939 23.5287 242.753 23.0614C245.496 22.3432 246.025 21.5892 246.025 15.2788C246.026 10.3292 245.661 8.89616 242.558 6.52968ZM241.072 22.1657C240.279 21.377 239.353 20.5143 238.297 19.9415V9.64905C240.608 10.1872 241.072 11.3351 241.072 12.9835V22.1657Z" fill="black"/>
<path d="M262.404 11.6935L258.905 15.5661L256.494 10.9045L255.402 11.9441V19.6553C255.402 21.1608 256.23 22.0912 257.319 22.0912C258.145 22.0912 259.498 20.9461 260.359 20.2276L260.589 20.6582L254.18 26.1827C252.497 24.4963 250.614 22.7394 248.303 22.1977V21.7695C249.162 21.7695 250.449 21.447 250.449 20.3707V12.9835C250.449 11.5857 249.921 11.0112 249.326 11.0112C248.699 11.0112 248.402 11.3354 247.939 11.8016L247.611 11.2982L252.497 6.52968C254.247 7.74765 255.402 9.11091 255.402 11.2615L259.63 6.81611L262.404 11.6935Z" fill="black"/>
<path d="M270.196 18.3628C270.196 19.9044 270.328 21.5541 271.417 21.5541C272.31 21.5541 273.07 20.8724 273.531 20.5498L273.796 20.909L268.312 26.1809C267.291 24.4957 265.407 22.7371 263.557 22.309V21.7689C263.82 21.8406 264.052 21.8772 264.252 21.8772C265.144 21.8772 265.241 21.4813 265.241 20.3701V11.4768H263.161V11.0459C266.629 10.0068 268.609 5.02242 269.601 1.57885H270.196V8.89414H273.562V11.4768H270.196V18.3628Z" fill="black"/>
</svg>
