<svg width="105" height="20" viewBox="0 0 105 20" fill="none" xmlns="http://www.w3.org/2000/svg">
<g id="Full-color">
<g id="Group-4">
<path id="Fill-5-Copy" fill-rule="evenodd" clip-rule="evenodd" d="M26.4658 12.2384H26.4253L23.8926 5.0293H21.2722V14.8114H23.2698V8.11991L23.3111 8.11296L25.7745 14.8114H27.1291L29.5929 8.12647L29.6346 8.13265V14.8114H31.6326V5.0293H29.0256L26.4658 12.2384Z" fill="white"/>
<path id="Fill-6-Copy" fill-rule="evenodd" clip-rule="evenodd" d="M36.867 10.5114H40.5619V9.00024H36.867V6.54042H41.2465V5.0293H34.8687V14.8114H41.2595V13.3061H36.867V10.5114Z" fill="white"/>
<path id="Fill-7-Copy" fill-rule="evenodd" clip-rule="evenodd" d="M49.7307 10.7335C49.7307 11.4855 49.53 12.1024 49.1287 12.5841C48.727 13.0658 48.1978 13.3061 47.5407 13.3061H46.0626V6.5408H47.5407C48.1978 6.5408 48.727 6.78068 49.1287 7.25967C49.53 7.73904 49.7307 8.35206 49.7307 9.10028V10.7335ZM47.5407 5.0293H44.0642V14.8114H47.5407C48.7589 14.8114 49.7622 14.4317 50.5518 13.6727C51.3407 12.9132 51.7357 11.9336 51.7357 10.7335V9.11419C51.7357 7.91827 51.3407 6.93828 50.5518 6.17461C49.7622 5.41094 48.7589 5.0293 47.5407 5.0293Z" fill="white"/>
<path id="Fill-8-Copy" fill-rule="evenodd" clip-rule="evenodd" d="M54.595 14.8117H56.5937V5.02881H54.595V14.8117Z" fill="white"/>
<path id="Fill-9-Copy" fill-rule="evenodd" clip-rule="evenodd" d="M62.5525 11.1638L63.6612 7.71741H63.7021L64.8042 11.1638H62.5525ZM62.6622 5.0293L59.3018 14.8114H61.3894L62.0591 12.7016H65.2897L65.968 14.8114H68.0545L64.7082 5.0293H62.6622Z" fill="white"/>
<path id="Fill-10-Copy" fill-rule="evenodd" clip-rule="evenodd" d="M76.9707 9.62524H71.3117V5.0293H70.4897V14.8114H71.3117V10.3097H76.9707V14.8114H77.7914V5.0293H76.9707V9.62524Z" fill="white"/>
<path id="Fill-11-Copy" fill-rule="evenodd" clip-rule="evenodd" d="M87.9256 11.5265C87.9256 12.3728 87.6655 13.0426 87.1454 13.5348C86.6248 14.0284 85.9591 14.2745 85.1467 14.2745C84.3531 14.2745 83.7015 14.0269 83.1928 13.5317C82.6844 13.0372 82.4299 12.3686 82.4299 11.5265V5.0293H81.6091V11.5265C81.6091 12.5973 81.9384 13.4351 82.5975 14.0423C83.2569 14.6496 84.1068 14.9532 85.1467 14.9532C86.2007 14.9532 87.0628 14.6503 87.7336 14.0458C88.404 13.4413 88.7396 12.6015 88.7396 11.5265V5.0293H87.9256V11.5265Z" fill="white"/>
<path id="Fill-12-Copy" fill-rule="evenodd" clip-rule="evenodd" d="M92.7546 14.8117H93.5758V5.02881H92.7546V14.8117Z" fill="white"/>
<path id="Fill-13-Copy" fill-rule="evenodd" clip-rule="evenodd" d="M103.354 10.6731C102.802 10.2339 102.002 9.8646 100.952 9.56446C99.9436 9.28712 99.2397 8.98775 98.8416 8.66714C98.441 8.34808 98.2415 7.93823 98.2415 7.44187C98.2415 6.9173 98.4619 6.47579 98.9025 6.11462C99.3424 5.75422 99.9499 5.57383 100.726 5.57383C101.479 5.57383 102.094 5.78628 102.571 6.21196C103.047 6.63764 103.286 7.17263 103.286 7.81772H104.052L104.066 7.77754C104.084 6.93971 103.784 6.24865 103.169 5.704C102.553 5.16051 101.739 4.88818 100.726 4.88818C99.7634 4.88818 98.9722 5.12883 98.3509 5.61052C97.7312 6.09221 97.4208 6.70678 97.4208 7.45461C97.4208 8.18932 97.6982 8.77066 98.2526 9.19866C98.8061 9.62588 99.6155 9.98358 100.679 10.2698C101.65 10.5572 102.339 10.8635 102.745 11.1903C103.151 11.5179 103.354 11.932 103.354 12.4337C103.354 12.9757 103.114 13.4176 102.635 13.7606C102.156 14.1028 101.536 14.2744 100.775 14.2744C100.031 14.2744 99.3692 14.0889 98.7888 13.7193C98.2105 13.3504 97.9205 12.7876 97.9205 12.0305H97.1607L97.1473 12.0703C97.1237 13.0112 97.4775 13.727 98.2077 14.2172C98.9376 14.7078 99.7929 14.953 100.775 14.953C101.755 14.953 102.568 14.7213 103.214 14.2577C103.859 13.7942 104.182 13.1812 104.182 12.4202C104.182 11.6944 103.906 11.1119 103.354 10.6731Z" fill="white"/>
</g>
<g id="Group-2">
<g id="Group">
<path id="Fill-1-Copy" fill-rule="evenodd" clip-rule="evenodd" d="M16.0783 5.05787L8.03833 0.282227V9.83416L16.0783 5.05787Z" fill="#FF261F"/>
<path id="Fill-2-Copy" fill-rule="evenodd" clip-rule="evenodd" d="M8.03859 9.83439L0.000488281 5.05811V14.611L8.03859 9.83439L16.0786 14.611V5.05811L8.03859 9.83439Z" fill="#EBEBEB"/>
<path id="Fill-3-Copy" fill-rule="evenodd" clip-rule="evenodd" d="M0 5.05787L8.0381 9.83384V0.282227L0 5.05787Z" fill="#FF8A17"/>
<path id="Fill-4-Copy" fill-rule="evenodd" clip-rule="evenodd" d="M0 14.6116L8.0381 19.3872L16.0787 14.6116L8.0381 9.83398L0 14.6116Z" fill="#BEBEBE"/>
</g>
</g>
</g>
</svg>
