<svg width="85" height="87" viewBox="0 0 85 87" fill="none" xmlns="http://www.w3.org/2000/svg">
<g id="Group 1942">
<g id="Group">
<g id="fade P 1">
<path id="Vector" d="M40.6363 79.7402H27.4575C26.2234 79.7402 25.2229 78.7396 25.2229 77.5055V56.0543C25.2229 54.8202 26.2234 53.8197 27.4575 53.8197C28.6917 53.8197 29.6922 54.8202 29.6922 56.0543V75.2709H38.4016V56.0543C38.4016 54.8202 39.4021 53.8197 40.6363 53.8197C41.8704 53.8197 42.8709 54.8202 42.8709 56.0543V77.5055C42.8709 78.7396 41.8704 79.7402 40.6363 79.7402Z" fill="#E6E6E6"/>
<path id="Vector_2" d="M38.7985 20.6776C42.4264 18.91 44.9324 15.1854 44.9324 10.8858C44.9324 4.88331 40.0491 0 34.0468 0C28.0444 0 23.1611 4.88331 23.1611 10.8858C23.1611 15.1852 25.6673 18.91 29.2952 20.6776C23.0142 22.692 18.4541 28.5862 18.4541 35.5274V56.0536C18.4541 57.2878 19.4546 58.2883 20.6887 58.2883H47.4047C48.6389 58.2883 49.6394 57.2878 49.6394 56.0536V35.5274C49.6394 28.5862 45.0793 22.6922 38.7985 20.6776ZM34.0468 4.46929C37.5847 4.46929 40.4631 7.34772 40.4631 10.8858C40.4631 14.4236 37.5847 17.302 34.0468 17.302C30.5088 17.302 27.6304 14.4236 27.6304 10.8858C27.6304 7.34772 30.5088 4.46929 34.0468 4.46929ZM45.1701 53.819H22.9234V35.5274C22.9234 29.3939 27.9132 24.404 34.0468 24.404C40.1801 24.404 45.1701 29.3937 45.1701 35.5274V53.819Z" fill="#E6E6E6"/>
</g>
<g id="Fade P 2">
<path id="Vector_3" d="M75.2564 79.7402H62.0777C60.8435 79.7402 59.843 78.7396 59.843 77.5055V56.0543C59.843 54.8202 60.8435 53.8197 62.0777 53.8197C63.3118 53.8197 64.3123 54.8202 64.3123 56.0543V75.2709H73.0217V56.0543C73.0217 54.8202 74.0222 53.8197 75.2564 53.8197C76.4905 53.8197 77.491 54.8202 77.491 56.0543V77.5055C77.491 78.7396 76.4905 79.7402 75.2564 79.7402Z" fill="#E6E6E6"/>
<path id="Vector_4" d="M73.4184 20.6776C77.0462 18.91 79.5523 15.1854 79.5523 10.8858C79.5523 4.88331 74.669 0 68.6667 0C62.6643 0 57.7809 4.88331 57.7809 10.8858C57.7809 15.1852 60.2872 18.91 63.9151 20.6776C57.6341 22.692 53.074 28.5862 53.074 35.5274V56.0536C53.074 57.2878 54.0745 58.2883 55.3086 58.2883H82.0246C83.2588 58.2883 84.2593 57.2878 84.2593 56.0536V35.5274C84.2593 28.5862 79.6992 22.6922 73.4184 20.6776ZM68.6667 4.46929C72.2046 4.46929 75.083 7.34772 75.083 10.8858C75.083 14.4236 72.2046 17.302 68.6667 17.302C65.1287 17.302 62.2502 14.4236 62.2502 10.8858C62.2502 7.34772 65.1287 4.46929 68.6667 4.46929ZM79.79 53.819H57.5433V35.5274C57.5433 29.3939 62.533 24.404 68.6667 24.404C74.8 24.404 79.79 29.3937 79.79 35.5274V53.819Z" fill="#E6E6E6"/>
</g>
<g id="Person 2">
<path id="Vector_5" d="M58.3474 79.74H45.1687C43.9346 79.74 42.9341 78.7395 42.9341 77.5054V56.0542C42.9341 54.8201 43.7306 54.6466 44.965 54.6466C46.1993 54.6466 47.4034 54.8201 47.4034 56.0542V75.2708H56.1128V56.0542C56.1128 54.8201 56.9402 55.0273 58.1744 55.0273C59.4085 55.0273 60.5821 54.8201 60.5821 56.0542V77.5054C60.5821 78.7395 59.5818 79.74 58.3474 79.74Z" fill="#FF951C"/>
<path id="Vector_6" d="M65.1095 58.2888H38.3933C37.1592 58.2888 36.1587 57.2883 36.1587 56.0542V35.5279C36.1587 26.93 43.1535 19.9352 51.7514 19.9352C60.3493 19.9352 67.3442 26.93 67.3442 35.5279V56.0542C67.3442 57.2883 66.3437 58.2888 65.1095 58.2888ZM40.628 53.8195H62.8749V35.5279C62.8749 29.3944 57.8851 24.4045 51.7514 24.4045C45.6179 24.4045 40.628 29.3942 40.628 35.5279V53.8195Z" fill="#0082C9"/>
<path id="Vector_7" d="M51.7532 21.7717C45.751 21.7717 40.8677 16.8884 40.8677 10.8861C40.8677 4.88368 45.751 0.000366211 51.7532 0.000366211C57.7557 0.000366211 62.639 4.88368 62.639 10.8861C62.639 16.8884 57.7557 21.7717 51.7532 21.7717ZM51.7532 4.46966C48.2154 4.46966 45.337 7.34808 45.337 10.8861C45.337 14.424 48.2154 17.3024 51.7532 17.3024C55.2913 17.3024 58.1697 14.424 58.1697 10.8861C58.1697 7.34808 55.2913 4.46966 51.7532 4.46966Z" fill="#FF951C"/>
</g>
<g id="Person 1">
<path id="Vector_8" d="M22.9295 79.7393H9.75076C8.51662 79.7393 7.51611 78.7388 7.51611 77.5047V56.0541C7.51611 54.82 8.6895 54.9319 9.92384 54.9319C11.1582 54.9319 11.9854 54.8198 11.9854 56.0541V75.27H20.6948V56.0541C20.6948 54.82 21.5223 54.6465 22.7564 54.6465C23.9905 54.6465 25.1641 54.82 25.1641 56.0541V77.5047C25.1641 78.7388 24.1636 79.7393 22.9295 79.7393Z" fill="#FF951C"/>
<g id="Group_2">
<g id="Group_3">
<g id="Group_4">
<g id="Group_5">
<path id="Vector_9" d="M29.6916 58.2884H2.97537C1.74123 58.2884 0.740723 57.2879 0.740723 56.0538V35.5276C0.740723 26.9297 7.73557 19.9348 16.3335 19.9348C24.9314 19.9348 31.9262 26.9297 31.9262 35.5276V56.0538C31.9262 57.2879 30.9257 58.2884 29.6916 58.2884ZM5.21001 53.8192H27.4569V35.5276C27.4569 29.3941 22.4672 24.4041 16.3335 24.4041C10.1998 24.4041 5.21001 29.3939 5.21001 35.5276V53.8192Z" fill="#0082C9"/>
</g>
<g id="Group_6">
<path id="Vector_10" d="M16.3333 21.7716C10.3311 21.7716 5.44775 16.8883 5.44775 10.886C5.44775 4.88355 10.3311 0.000244141 16.3333 0.000244141C22.3358 0.000244141 27.2191 4.88355 27.2191 10.886C27.2191 16.8883 22.3358 21.7716 16.3333 21.7716ZM16.3333 4.46953C12.7955 4.46953 9.91704 7.34796 9.91704 10.886C9.91704 14.4239 12.7955 17.3023 16.3333 17.3023C19.8714 17.3023 22.7498 14.4239 22.7498 10.886C22.7498 7.34796 19.8714 4.46953 16.3333 4.46953Z" fill="#FF951C"/>
</g>
</g>
</g>
</g>
</g>
</g>
</g>
</svg>
