<svg width="87" height="87" viewBox="0 0 87 87" fill="none" xmlns="http://www.w3.org/2000/svg">
<g id="Group">
<path id="Vector" d="M57.4079 11.8605V5.60742C57.4079 2.51552 54.8923 0 51.8004 0H5.60718C2.51528 0 -0.000244141 2.51552 -0.000244141 5.60742V81.3926C-0.000244141 84.4845 2.51528 87 5.60718 87H51.8004C54.8923 87 57.4079 84.4845 57.4079 81.3926V46.6327H53.6696V81.3926C53.6696 82.4232 52.831 83.2617 51.8004 83.2617H5.60718C4.5766 83.2617 3.73804 82.4232 3.73804 81.3926V5.60742C3.73804 4.57685 4.5766 3.73828 5.60718 3.73828H15.8066V8.30221C15.8066 10.3464 17.4696 12.0092 19.5136 12.0092H37.8937C39.9379 12.0092 41.6009 10.3462 41.6009 8.30221V3.73828H51.8003C52.8308 3.73828 53.6694 4.57685 53.6694 5.60742V11.8605H57.4079ZM37.8628 8.27095H19.5448V3.73828H37.8626V8.27095H37.8628Z" fill="#FF951C"/>
<g id="Group_2">
<path id="Vector_2" d="M35.546 45.3143C37.9541 43.334 39.4928 40.333 39.4928 36.9791C39.4928 31.0303 34.6531 26.1904 28.7041 26.1904C22.7551 26.1904 17.9154 31.0301 17.9154 36.9791C17.9154 40.333 19.4541 43.334 21.8622 45.3143C14.8346 48.0594 9.84277 54.9028 9.84277 62.8908V65.25C9.84277 66.2823 10.6796 67.1192 11.7119 67.1192H45.6963C46.7286 67.1192 47.5654 66.2823 47.5654 65.25V62.8908C47.5654 54.9028 42.5736 48.0594 35.546 45.3143ZM21.6537 36.9791C21.6537 33.0916 24.8165 29.9287 28.7041 29.9287C32.5917 29.9287 35.7545 33.0915 35.7545 36.9791C35.7545 40.8667 32.5917 44.0295 28.7041 44.0295C24.8165 44.0295 21.6537 40.8667 21.6537 36.9791ZM43.8271 63.3809H13.5811V62.8908C13.5811 54.5519 20.3652 47.7678 28.7041 47.7678C37.043 47.7678 43.8271 54.5519 43.8271 62.8908V63.3809Z" fill="#399AD0"/>
<path id="Vector_3" d="M66.1855 7.51294C54.7081 7.51294 45.3706 16.8505 45.3706 28.3279C45.3706 32.2911 46.4795 36.1172 48.5852 39.443L47.06 48.265C46.9463 48.9231 47.1922 49.5917 47.7052 50.0192C48.0464 50.3037 48.4713 50.4525 48.9021 50.4525C49.1189 50.4525 49.3373 50.4148 49.5469 50.3377L57.7008 47.3391C60.3739 48.5363 63.224 49.1428 66.1855 49.1428C77.6629 49.1428 87.0004 39.8052 87.0004 28.3279C87.0004 16.8505 77.6629 7.51294 66.1855 7.51294ZM66.1855 45.4045C63.5295 45.4045 60.9837 44.8108 58.6191 43.6399C58.1593 43.4122 57.626 43.3834 57.1445 43.5607L51.2953 45.7117L52.395 39.351C52.4779 38.8707 52.3702 38.377 52.0944 37.9752C50.1413 35.1285 49.1091 31.7926 49.1091 28.328C49.1091 18.912 56.7696 11.2514 66.1857 11.2514C75.6017 11.2514 83.2622 18.9118 83.2622 28.3279C83.2622 37.7439 75.6016 45.4045 66.1855 45.4045Z" fill="#399AD0"/>
</g>
<g id="Group_3">
<path id="Vector_4" d="M55.1281 27.6123C54.5998 28.7989 55.5573 30.2269 56.8545 30.1968C58.1515 30.2266 59.1054 28.7984 58.5792 27.6123C57.9681 26.0878 55.7393 26.0883 55.1281 27.6123Z" fill="#FF951C"/>
<path id="Vector_5" d="M64.4545 27.6123C63.9262 28.7989 64.8837 30.2269 66.1809 30.1968C67.4779 30.2266 68.4318 28.7984 67.9056 27.6123C67.2946 26.0878 65.0657 26.0883 64.4545 27.6123Z" fill="#FF951C"/>
<path id="Vector_6" d="M77.233 27.6123C76.622 26.0878 74.3931 26.0883 73.7819 27.6123C73.2536 28.7989 74.2111 30.2269 75.5083 30.1968C76.8055 30.2266 77.7594 28.7982 77.233 27.6123Z" fill="#FF951C"/>
</g>
</g>
</svg>
