<svg width="20" height="10" viewBox="0 0 20 10" fill="none" xmlns="http://www.w3.org/2000/svg">
<g id="Group 1933">
<path id="Vector" d="M3.28156 5.96307L2.21881 9.40186L5.00037 7.27553L7.78045 9.40186L6.71992 5.96307L9.5 3.83909H6.06312L5.00037 0.401855L3.93762 3.83909H0.5L3.28156 5.96307Z" fill="#FFE100"/>
<path id="Vector_2" d="M11.3544 6.10933L10.6459 8.40186L12.5002 6.98431L14.3536 8.40186L13.6466 6.10933L15.5 4.69334H13.2087L12.5002 2.40186L11.7917 4.69334H9.5L11.3544 6.10933Z" fill="#FFD000" fill-opacity="0.8"/>
<path id="Vector_3" d="M16.7362 6.87351L16.2639 8.40186L17.5002 7.45682L18.7358 8.40186L18.2644 6.87351L19.5 5.92951H17.9725L17.5002 4.40186L17.0278 5.92951H15.5L16.7362 6.87351Z" fill="#FFD000" fill-opacity="0.5"/>
</g>
</svg>
