<svg width="76" height="88" viewBox="0 0 76 88" fill="none" xmlns="http://www.w3.org/2000/svg">
<g id="Group">
<g id="Group_2">
<g id="Group_3">
<path id="Vector" d="M68.4321 87.4554H57.3513C56.3137 87.4554 55.4724 86.6142 55.4724 85.5765V67.5401C55.4724 66.5024 56.1422 66.3566 57.18 66.3566C58.2178 66.3566 59.2302 66.5024 59.2302 67.5401V83.6976H66.5532V67.5401C66.5532 66.5024 67.2489 66.6767 68.2866 66.6767C69.3243 66.6767 70.3111 66.5024 70.3111 67.5401V85.5765C70.3111 86.6142 69.47 87.4554 68.4321 87.4554Z" fill="#FF951C"/>
</g>
<g id="Group_4">
<path id="Vector_2" d="M43.543 87.4554H32.4622C31.4245 87.4554 30.5833 86.6141 30.5833 85.5764V67.54C30.5833 66.5024 31.4245 65.6611 32.4622 65.6611C33.4998 65.6611 34.3411 66.5024 34.3411 67.54V83.6975H41.6641V67.54C41.6641 66.5024 42.5053 65.6611 43.543 65.6611C44.5807 65.6611 45.4219 66.5024 45.4219 67.54V85.5764C45.4219 86.6141 44.5807 87.4554 43.543 87.4554Z" fill="#0082C9"/>
</g>
<g id="Group_5">
<path id="Vector_3" d="M18.6519 87.4548H7.57105C6.53338 87.4548 5.69214 86.6135 5.69214 85.5759V67.54C5.69214 66.5023 6.67874 66.5964 7.71658 66.5964C8.75443 66.5964 9.44997 66.5021 9.44997 67.54V83.697H16.773V67.54C16.773 66.5023 17.4687 66.3564 18.5063 66.3564C19.544 66.3564 20.5308 66.5023 20.5308 67.54V85.5759C20.5308 86.6135 19.6895 87.4548 18.6519 87.4548Z" fill="#FF951C"/>
</g>
<g id="Group_6">
<g id="Group_7">
<g id="Group_8">
<g id="Group_9">
<path id="Vector_4" d="M59.4486 25.0342C58.8761 25.0342 58.311 24.7737 57.9421 24.2799C56.1561 21.8899 53.4235 20.5191 50.4447 20.5191C47.4666 20.5191 44.7343 21.8892 42.9483 24.2778C42.3268 25.1085 41.1497 25.2788 40.3185 24.6575C39.4875 24.0361 39.3176 22.8589 39.9388 22.0277C42.4043 18.7301 46.3316 16.7615 50.4445 16.7615C54.5587 16.7615 58.4868 18.7311 60.9524 22.0305C61.5737 22.8616 61.4034 24.0392 60.572 24.6603C60.2344 24.9124 59.8398 25.0342 59.4486 25.0342Z" fill="#0082C9"/>
</g>
<g id="Group_10">
<path id="Vector_5" d="M50.4454 18.3057C45.3984 18.3057 41.2925 14.1998 41.2925 9.153C41.2925 4.10606 45.3984 0.00012207 50.4454 0.00012207C55.4921 0.00012207 59.5981 4.10606 59.5981 9.153C59.5981 14.1998 55.4921 18.3057 50.4454 18.3057ZM50.4454 3.75795C47.4705 3.75795 45.0503 6.17817 45.0503 9.153C45.0503 12.1277 47.4705 14.5479 50.4454 14.5479C53.42 14.5479 55.8402 12.1277 55.8402 9.153C55.8402 6.17817 53.42 3.75795 50.4454 3.75795Z" fill="#FF951C"/>
</g>
</g>
<g id="Group_11">
<g id="Group_12">
<path id="Vector_6" d="M16.5562 25.0342C16.1651 25.0342 15.7705 24.9124 15.433 24.6603C14.6018 24.039 14.4315 22.8616 15.0526 22.0305C17.5182 18.7313 21.4463 16.7615 25.5605 16.7615C29.6729 16.7615 33.6 18.7297 36.0657 22.0269C36.6871 22.8579 36.5173 24.0354 35.6861 24.6568C34.8551 25.2783 33.6777 25.1083 33.0562 24.2773C31.2702 21.889 28.5382 20.5191 25.5605 20.5191C22.5817 20.5191 19.8488 21.8899 18.0628 24.2799C17.694 24.7733 17.1286 25.0342 16.5562 25.0342Z" fill="#0082C9"/>
</g>
<g id="Group_13">
<path id="Vector_7" d="M25.5606 18.3057C20.5137 18.3057 16.4077 14.1998 16.4077 9.153C16.4077 4.10606 20.5137 0.00012207 25.5606 0.00012207C30.6074 0.00012207 34.7133 4.10606 34.7133 9.153C34.7133 14.1998 30.6074 18.3057 25.5606 18.3057ZM25.5606 3.75795C22.5858 3.75795 20.1655 6.17817 20.1655 9.153C20.1655 12.1277 22.5858 14.5479 25.5606 14.5479C28.5353 14.5479 30.9555 12.1277 30.9555 9.153C30.9555 6.17817 28.5353 3.75795 25.5606 3.75795Z" fill="#FF951C"/>
</g>
</g>
</g>
<g id="Group_14">
<g id="Group_15">
<g id="Group_16">
<g id="Group_17">
<g id="Group_18">
<path id="Vector_8" d="M74.1205 69.4189H51.6572C50.6196 69.4189 49.7783 68.5777 49.7783 67.54V50.2813C49.7783 43.0521 55.6597 37.1708 62.8889 37.1708C70.1181 37.1708 75.9994 43.0521 75.9994 50.2813V67.54C75.9994 68.5777 75.1582 69.4189 74.1205 69.4189ZM53.5362 65.6611H72.2416V50.2813C72.2416 45.1242 68.0462 40.9286 62.8889 40.9286C57.7318 40.9286 53.5362 45.1241 53.5362 50.2813V65.6611Z" fill="#0082C9"/>
</g>
<g id="Group_19">
<path id="Vector_9" d="M62.8905 38.715C57.8437 38.715 53.7378 34.6091 53.7378 29.5623C53.7378 24.5154 57.8437 20.4094 62.8905 20.4094C67.9374 20.4094 72.0434 24.5154 72.0434 29.5623C72.0434 34.6091 67.9374 38.715 62.8905 38.715ZM62.8905 24.1673C59.9158 24.1673 57.4956 26.5875 57.4956 29.5623C57.4956 32.537 59.9158 34.9572 62.8905 34.9572C65.8653 34.9572 68.2856 32.537 68.2856 29.5623C68.2856 26.5875 65.8653 24.1673 62.8905 24.1673Z" fill="#FF951C"/>
</g>
</g>
</g>
</g>
<g id="Group_20">
<g id="Group_21">
<g id="Group_22">
<g id="Group_23">
<path id="Vector_10" d="M24.3427 69.4187H1.8794C0.84173 69.4187 0.000488281 68.5775 0.000488281 67.5398V50.2811C0.000488281 43.0519 5.88183 37.1705 13.111 37.1705C20.3403 37.1705 26.2216 43.0519 26.2216 50.2811V67.5398C26.2216 68.5775 25.3804 69.4187 24.3427 69.4187ZM3.75832 65.6609H22.4638V50.2811C22.4638 45.124 18.2683 40.9284 13.111 40.9284C7.95377 40.9284 3.75832 45.1238 3.75832 50.2811V65.6609Z" fill="#0082C9"/>
</g>
<g id="Group_24">
<path id="Vector_11" d="M13.111 38.7149C8.06419 38.7149 3.95825 34.6089 3.95825 29.5622C3.95825 24.5152 8.06419 20.4093 13.111 20.4093C18.1579 20.4093 22.2638 24.5152 22.2638 29.5622C22.2638 34.6089 18.1579 38.7149 13.111 38.7149ZM13.111 24.1671C10.1363 24.1671 7.71608 26.5873 7.71608 29.5622C7.71608 32.5368 10.1363 34.9571 13.111 34.9571C16.0858 34.9571 18.506 32.5368 18.506 29.5622C18.506 26.5873 16.0858 24.1671 13.111 24.1671Z" fill="#FF951C"/>
</g>
</g>
</g>
</g>
<path id="Vector_12" d="M41.9962 37.795C45.0465 36.3088 47.1537 33.1771 47.1537 29.5619C47.1537 24.515 43.0477 20.4091 38.0009 20.4091C32.954 20.4091 28.8481 24.515 28.8481 29.5619C28.8481 33.177 30.9553 36.3088 34.0057 37.795C28.7246 39.4888 24.8904 44.4447 24.8904 50.2809V67.5396C24.8904 68.5773 25.7316 69.4185 26.7693 69.4185H49.2324C50.2701 69.4185 51.1113 68.5773 51.1113 67.5396V50.2809C51.1113 44.4447 47.2771 39.4889 41.9962 37.795ZM38.0009 24.1669C40.9756 24.1669 43.3958 26.5871 43.3958 29.5619C43.3958 32.5366 40.9756 34.9568 38.0009 34.9568C35.0261 34.9568 32.6059 32.5366 32.6059 29.5619C32.6059 26.5871 35.0261 24.1669 38.0009 24.1669ZM47.3535 65.6607H28.6482V50.2809C28.6482 45.1238 32.8437 40.9282 38.0009 40.9282C43.1579 40.9282 47.3535 45.1236 47.3535 50.2809V65.6607Z" fill="#FF951C"/>
</g>
</g>
</g>
</g>
</svg>
