<svg width="24" height="15" viewBox="0 0 24 15" fill="none" xmlns="http://www.w3.org/2000/svg">
<g id="Wort_Premium" clip-path="url(#clip0_55_529)">
<rect id="Rectangle 1463" x="0.138184" width="23" height="15" rx="4" fill="white"/>
<path id="Path 1" d="M22.0008 1.71286e-06C22.15 -0.000264682 22.2977 0.0305449 22.4356 0.0906706C22.5735 0.150796 22.6988 0.23906 22.8044 0.35042C22.91 0.461781 22.9939 0.594056 23.0511 0.73969C23.1084 0.885324 23.138 1.04146 23.1382 1.19919V13.7996C23.1381 13.9574 23.1086 14.1137 23.0514 14.2594C22.9941 14.4052 22.9103 14.5376 22.8047 14.649C22.6991 14.7605 22.5737 14.8489 22.4358 14.9091C22.2979 14.9693 22.1501 15.0002 22.0008 15H1.27553C1.12631 15.0002 0.978512 14.9693 0.840582 14.9091C0.702651 14.8489 0.577292 14.7605 0.47167 14.649C0.366047 14.5376 0.28223 14.4052 0.225009 14.2594C0.167788 14.1137 0.138284 13.9574 0.138184 13.7996L0.138184 1.19919C0.138385 1.04146 0.167966 0.885324 0.225236 0.73969C0.282507 0.594056 0.366346 0.461781 0.471964 0.35042C0.577582 0.23906 0.702909 0.150796 0.840787 0.0906706C0.978666 0.0305449 1.12639 -0.000264682 1.27553 1.71286e-06H22.0008ZM21.7965 0.60811H1.47985C1.27652 0.60811 1.08151 0.693534 0.937735 0.845591C0.793957 0.997647 0.713184 1.20388 0.713184 1.41892V13.5811C0.713184 13.7961 0.793957 14.0024 0.937735 14.1544C1.08151 14.3065 1.27652 14.3919 1.47985 14.3919H21.7965C21.9998 14.3919 22.1949 14.3065 22.3386 14.1544C22.4824 14.0024 22.5632 13.7961 22.5632 13.5811V1.41892C22.5632 1.20388 22.4824 0.997647 22.3386 0.845591C22.1949 0.693534 21.9998 0.60811 21.7965 0.60811ZM11.3794 2.83784C12.4493 2.83784 13.4809 3.46216 13.5192 4.74892C13.5575 5.45149 13.5959 5.76243 13.9792 5.76243C14.0954 5.7711 14.2122 5.7582 14.3242 5.72432V5.88081C14.0203 5.92588 13.7141 5.952 13.4073 5.95905H12.9473L12.8924 6.00527L12.8752 6.01946L12.9687 6.03486L13.0688 6.04703C12.9461 6.09608 12.8211 6.14919 12.6977 6.20919L12.6567 6.22865L12.6414 6.25135C12.616 6.29182 12.6026 6.33941 12.603 6.38797C12.603 7.0123 14.246 7.05203 14.246 8.76851C14.2243 9.37059 14.0361 9.9527 13.7047 10.4428L13.6664 10.5V10.5195C13.6426 10.6166 13.5996 10.7073 13.5401 10.7856C13.4806 10.8638 13.406 10.9277 13.3214 10.9731L13.293 10.9893L13.3548 10.9184C13.4607 10.7934 13.5598 10.6621 13.6514 10.5251L13.6675 10.5L13.6695 10.4716C13.6695 9.48122 11.4649 9.36608 11.4649 7.80284C11.4649 7.00257 12.0123 6.55014 12.6237 6.24486L12.6567 6.22865L12.6625 6.21973C12.7165 6.15636 12.7765 6.09891 12.8415 6.04824L12.8744 6.02027C12.5037 5.98096 12.1619 5.79081 11.9213 5.48996C11.6807 5.18911 11.5601 4.80114 11.5849 4.40797C11.5466 3.87365 11.3446 3.37743 10.7416 3.37743C10.4623 3.4135 10.2017 3.54479 9.99927 3.75142C9.79683 3.95806 9.66353 4.22881 9.61955 4.5227C9.61955 5.39838 11.0624 5.97122 11.0624 7.34432C11.0032 7.76769 10.8435 8.16826 10.5981 8.50858C10.3528 8.8489 10.0298 9.11784 9.65942 9.29027H10.1432C11.2652 9.29027 12.0671 11.0834 12.9887 11.0834C13.0885 11.0797 13.1861 11.052 13.2743 11.0023L13.2934 10.9909L13.2907 10.9946C12.7391 11.6733 11.9556 12.0932 11.1119 12.1622C10.5135 12.1439 9.94238 11.8939 9.50685 11.4596C9.08518 11.1085 8.81915 10.757 8.58992 10.757C8.43658 10.757 8.16825 11.1081 7.82555 11.4596C7.4413 11.8768 6.92362 12.1274 6.37387 12.1622C5.07475 12.1622 4.38705 10.6022 3.39345 10.6022C2.93652 10.6022 2.78318 11.1081 2.70652 11.5378L2.51485 11.4997C2.66818 10.4862 3.3555 8.9627 4.50167 8.9627C4.68341 8.9573 4.86475 8.98374 5.03833 9.04095C5.30667 8.57311 5.42167 7.83243 5.42167 6.15405C5.42167 4.20284 5.115 3.11068 4.23717 3.11068C4.02888 3.14092 3.83502 3.2402 3.68343 3.39425C3.53184 3.54831 3.43032 3.74921 3.39345 3.96811C3.39345 4.94351 5.03642 4.98162 5.03642 6.50513C5.03642 7.75378 3.7373 8.7677 3.01127 8.7677V8.53297H3.08793C3.47127 8.53297 4.08153 8.14338 4.08153 7.75378C4.08115 7.16797 2.43818 7.16797 2.43818 5.52973C2.43818 4.00824 3.58435 2.83784 5.18937 2.83784C5.56628 2.82731 5.93951 2.91856 6.27381 3.103C6.6081 3.28743 6.89242 3.55894 7.0999 3.89189C7.3299 3.42406 7.59823 2.83784 8.13145 2.83784C8.74287 2.83784 9.04838 3.30568 9.23967 3.89189C9.49089 3.54833 9.81623 3.27337 10.1885 3.08999C10.5608 2.90662 10.9691 2.82016 11.3794 2.83784ZM8.11727 3.64865C7.93627 3.64876 7.75784 3.69405 7.59651 3.78083C7.43518 3.86762 7.2955 3.99346 7.18883 4.14811C7.40923 4.72236 7.53224 5.33318 7.55223 5.95257C7.55223 7.75703 6.74493 8.71784 5.04983 9.17716C5.93763 9.33203 7.10833 10.6772 7.87538 10.6772C8.5213 10.6772 9.48998 9.71676 9.48998 9.02554C9.48998 8.64284 9.16683 8.25811 8.80382 7.87338C8.48105 7.48865 8.11765 7.02932 8.11765 6.52986C8.11765 5.56946 8.68268 4.84014 9.24772 4.14932C8.94598 3.83462 8.54101 3.65526 8.11727 3.64865ZM18.3377 4.66216C18.4394 4.66216 18.5369 4.70487 18.6088 4.7809C18.6806 4.85693 18.721 4.96005 18.721 5.06757V7.10068H20.4579C20.559 7.10068 20.6559 7.14313 20.7273 7.2187C20.7988 7.29428 20.8389 7.39677 20.8389 7.50365C20.8389 7.61052 20.7988 7.71302 20.7273 7.78859C20.6559 7.86417 20.559 7.90662 20.4579 7.90662H18.7203V9.93365C18.7244 9.98936 18.7175 10.0454 18.7002 10.0982C18.6828 10.1509 18.6553 10.1994 18.6194 10.2404C18.5835 10.2814 18.54 10.3141 18.4916 10.3365C18.4432 10.3589 18.3909 10.3704 18.3381 10.3704C18.2852 10.3704 18.233 10.3589 18.1846 10.3365C18.1361 10.3141 18.0926 10.2814 18.0567 10.2404C18.0208 10.1994 17.9934 10.1509 17.976 10.0982C17.9587 10.0454 17.9518 9.98936 17.9559 9.93365V7.90662H16.2359C16.1348 7.90662 16.0379 7.86417 15.9665 7.78859C15.895 7.71302 15.8548 7.61052 15.8548 7.50365C15.8548 7.39677 15.895 7.29428 15.9665 7.2187C16.0379 7.14313 16.1348 7.10068 16.2359 7.10068H17.9559V5.06757C17.9559 4.96026 17.9961 4.85733 18.0678 4.78133C18.1394 4.70534 18.2362 4.66248 18.3377 4.66216Z" fill="#006297"/>
</g>
<defs>
<clipPath id="clip0_55_529">
<rect width="23" height="15" fill="white" transform="translate(0.138184)"/>
</clipPath>
</defs>
</svg>
